# xmcd
#
# Track frame offsets:
# 150
# 21103
# 31813
# 43143
# 62517
# 79726
# 93461
# 107576
# 178927
#
# Disc length: 2546 seconds
#
#
# Revision: 0
# Processed by: cddbd v1.5.2PL0 Copyright (c) Steve Scherf et al.
# Submitted via: FreeRIP 2.943 
#
DISCID=6b09f009
DTITLE=core of the earth - curtains
DYEAR=2006
DGENRE=Sludge
TTITLE0=bullwhip
TTITLE1=spice
TTITLE2=steamroller
TTITLE3=intermission
TTITLE4=blackballed
TTITLE5=mystery
TTITLE6=crom 2
TTITLE7=curtains
TTITLE8=credits
EXTD=qq
EXTT0=
EXTT1=
EXTT2=
EXTT3=
EXTT4=
EXTT5=
EXTT6=
EXTT7=
EXTT8=
PLAYORDER=
